<svg width="240" height="240" viewBox="0 0 240 240" fill="none" xmlns="http://www.w3.org/2000/svg">
<path d="M222.036 177.9C230.217 162.105 234.843 144.172 234.843 125.156C234.843 61.7301 183.426 10.3134 120 10.3134C56.5739 10.3134 5.15674 61.7306 5.15674 125.157C5.15674 136.162 6.70783 146.804 9.59768 156.88L222.036 177.9Z" fill="#38C674"/>
<path d="M207.375 64.1888C207.041 61.6528 204.88 59.7572 202.322 59.7572H68.0573C65.4998 59.7572 63.3384 61.6528 63.0052 64.1888L56.4009 114.404H80.153C82.8984 114.404 85.1311 116.637 85.1311 119.382V140.293H141.78C145.566 140.293 148.646 143.372 148.646 147.158V236.398C180.772 228.149 207.465 206.351 222.27 177.455L207.375 64.1888Z" fill="#FFDD40"/>
<path d="M63.0052 64.1888L56.4009 114.404H80.153C82.8984 114.404 85.1311 116.637 85.1311 119.382V140.293H102.458L102.711 139.545C98.5552 135.39 102.711 131.091 102.711 131.091L101.197 93.0361C97.6748 90.7702 100.156 86.753 100.156 86.753L102.091 78.0755C98.0241 64.2881 109.952 59.7572 109.952 59.7572H68.0569C65.4998 59.7572 63.3384 61.6533 63.0052 64.1888Z" fill="#FFB332"/>
<path d="M128.083 140.294H141.781C141.955 140.294 142.126 140.307 142.298 140.32V59.7572H128.083V140.294Z" fill="#FFB332"/>
<path d="M85.8792 140.542V119.382C85.8792 116.22 83.3156 113.656 80.1535 113.656H34.9308C31.7686 113.656 29.205 116.22 29.205 119.382V140.542H85.8792Z" fill="#425EA5"/>
<path d="M46.2094 134.271V119.928C46.2094 116.464 49.0172 113.656 52.4813 113.656H34.9308C31.7686 113.656 29.205 116.22 29.205 119.382V140.542H52.4813C49.0177 140.542 46.2094 137.735 46.2094 134.271Z" fill="#2A428C"/>
<path d="M141.781 139.546H17.0723C12.8681 139.546 9.45984 142.954 9.45984 147.158V156.397C23.0667 204.641 67.403 240 120 240C130.161 240 140.011 238.674 149.393 236.197V147.158C149.393 142.954 145.985 139.546 141.781 139.546Z" fill="#73C3F9"/>
<path d="M41.7863 147.158C41.7863 142.954 45.1946 139.546 49.3993 139.546H17.0724C12.8682 139.546 9.45941 142.954 9.45941 147.158V156.397C15.2489 176.922 26.603 195.113 41.7863 209.243V147.158Z" fill="#4FABF7"/>
<path d="M169.183 93.0361C157.84 87.788 144.547 101.532 141.685 104.708C143.264 105.043 144.315 106.712 143.707 108.314C142.747 110.837 142.618 113.56 143.237 116.084C150.822 114.278 166.893 111.868 174.226 121.438C174.258 121.479 174.286 121.52 174.317 121.562C174.254 120.639 174.079 119.659 173.764 118.614C170.71 108.498 181.972 98.9536 169.183 93.0361Z" fill="#FF4155"/>
<path d="M126.673 108.314C126.063 106.709 127.119 105.043 128.694 104.708C125.833 101.533 112.539 87.788 101.197 93.0366C88.4077 98.9541 99.6694 108.498 96.6155 118.615C96.3 119.66 96.1257 120.64 96.0619 121.563C96.0933 121.521 96.121 121.48 96.1529 121.439C103.486 111.868 119.558 114.279 127.142 116.085C127.784 113.468 127.596 110.741 126.673 108.314Z" fill="#FF4155"/>
<path d="M94.2272 89.2256C98.8376 89.2256 102.575 85.4881 102.575 80.8777C102.575 76.2672 98.8376 72.5297 94.2272 72.5297C89.6167 72.5297 85.8792 76.2672 85.8792 80.8777C85.8792 85.4881 89.6167 89.2256 94.2272 89.2256Z" fill="#FF9100"/>
<path d="M176.153 89.2256C180.763 89.2256 184.501 85.4881 184.501 80.8777C184.501 76.2672 180.763 72.5297 176.153 72.5297C171.542 72.5297 167.805 76.2672 167.805 80.8777C167.805 85.4881 171.542 89.2256 176.153 89.2256Z" fill="#FFB332"/>
<path d="M176.152 83.6709C174.146 83.6709 172.519 82.0444 172.519 80.0376V45.8072C172.519 36.8395 169.293 28.1719 163.436 21.3998C162.123 19.8825 162.289 17.588 163.807 16.275C165.325 14.962 167.619 15.1294 168.931 16.6462C175.931 24.7378 179.785 35.0944 179.785 45.8067V80.0372C179.786 82.0444 178.159 83.6709 176.152 83.6709Z" fill="#E9EFFF"/>
<path d="M94.2272 83.6709C92.221 83.6709 90.5939 82.0444 90.5939 80.0377V45.8072C90.5939 35.0958 94.448 24.7406 101.446 16.6486C102.759 15.1317 105.053 14.9644 106.571 16.2773C108.089 17.5898 108.255 19.8844 106.943 21.4022C101.086 28.1742 97.8605 36.8414 97.8605 45.8077V80.0381C97.86 82.0444 96.2335 83.6709 94.2272 83.6709Z" fill="#E9EFFF"/>
<path d="M104.192 23.8692C103.069 23.8692 101.941 23.4816 101.025 22.6889C99.0014 20.9391 98.7797 17.88 100.53 15.8564C109.245 5.77922 121.878 0 135.19 0C148.501 0 161.133 5.77828 169.848 15.8541C171.598 17.8781 171.376 20.9367 169.353 22.687C167.33 24.4369 164.27 24.2152 162.52 22.192C155.648 14.2453 145.686 9.68812 135.19 9.68812C124.694 9.68812 114.732 14.2463 107.859 22.1934C106.9 23.3016 105.55 23.8692 104.192 23.8692Z" fill="#D3DCFB"/>
<path d="M129.408 163.782C130.488 159.214 127.66 154.634 123.091 153.554C118.522 152.474 113.943 155.303 112.863 159.871C111.783 164.44 114.611 169.019 119.18 170.099C123.749 171.179 128.328 168.351 129.408 163.782Z" fill="#2E8BE6"/>
<path d="M41.0191 169.62C45.3578 167.822 47.4172 162.846 45.6188 158.508C43.8203 154.169 38.8452 152.11 34.5064 153.908C30.1677 155.706 28.1083 160.682 29.9067 165.02C31.7052 169.359 36.6803 171.418 41.0191 169.62Z" fill="#2E8BE6"/>
<path d="M79.4264 207.11C54.4191 207.11 34.0739 186.765 34.0739 161.757C34.0739 159.75 35.7005 158.124 37.7072 158.124C39.7134 158.124 41.3405 159.75 41.3405 161.757C41.3405 182.758 58.4259 199.844 79.4269 199.844C100.428 199.844 117.513 182.758 117.513 161.757C117.513 159.75 119.14 158.124 121.147 158.124C123.153 158.124 124.78 159.75 124.78 161.757C124.779 186.765 104.434 207.11 79.4264 207.11Z" fill="#E9EFFF"/>
<path d="M129.766 0.325317C118.491 1.66782 108.051 7.15969 100.53 15.8564C98.7802 17.8795 99.0019 20.9391 101.026 22.6889C103.048 24.4383 106.108 24.218 107.858 22.1934C113.878 15.233 122.266 10.8727 131.309 9.89672C127.358 8.29594 126.524 3.08297 129.766 0.325317Z" fill="#BEC8F7"/>
<path d="M126.673 108.314C126.063 106.709 127.119 105.043 128.694 104.708C127.084 102.921 122.17 97.7873 116.16 94.5745C115.746 95.1361 115.609 95.8884 115.886 96.5944C117.128 99.7528 118.445 105.957 113.364 112.146C112.822 112.806 112.77 113.705 113.147 114.432C118.487 114.32 123.693 115.262 127.143 116.084C127.784 113.468 127.596 110.741 126.673 108.314Z" fill="#E80054"/>
<path d="M157.016 112.146C151.935 105.958 153.251 99.7533 154.494 96.5948C154.771 95.8889 154.635 95.1365 154.22 94.575C148.21 97.7878 143.296 102.922 141.686 104.709C143.264 105.044 144.315 106.713 143.707 108.315C142.748 110.838 142.619 113.561 143.237 116.085C146.687 115.264 151.893 114.321 157.233 114.434C157.61 113.706 157.558 112.807 157.016 112.146Z" fill="#E80054"/>
<path d="M174.221 120.668C166.834 111.037 150.594 113.55 143.078 115.359C143.22 116.125 143.43 116.877 143.707 117.603C144.137 118.736 143.737 119.902 142.909 120.607C146.659 123.533 155.44 130.079 160.593 131.403C166.802 133 175.478 129.317 174.221 120.668Z" fill="#E80054"/>
<path d="M126.673 117.603C126.953 116.868 127.16 116.116 127.3 115.358C119.784 113.55 103.545 111.038 96.158 120.668C94.9013 129.317 103.577 133 109.786 131.403C114.939 130.078 123.721 123.533 127.471 120.607C126.643 119.902 126.243 118.737 126.673 117.603Z" fill="#E80054"/>
<path d="M126.673 117.603C126.953 116.868 127.16 116.116 127.3 115.358C123.804 114.517 118.419 113.525 112.917 113.672C112.966 114.142 113.166 114.599 113.519 114.957C115.384 116.851 118.103 120.805 116.5 126.778C116.371 127.258 116.409 127.763 116.604 128.208C120.781 125.705 125.117 122.443 127.47 120.607C126.643 119.902 126.243 118.737 126.673 117.603Z" fill="#CC0053"/>
<path d="M157.463 113.672C151.96 113.525 146.575 114.517 143.078 115.359C143.22 116.125 143.431 116.877 143.707 117.603C144.137 118.736 143.737 119.902 142.91 120.607C145.263 122.444 149.599 125.706 153.776 128.208C153.971 127.763 154.009 127.259 153.88 126.778C152.276 120.806 154.996 116.851 156.861 114.958C157.214 114.599 157.413 114.142 157.463 113.672Z" fill="#CC0053"/>
<path d="M143.43 112.958C143.43 111.394 143.717 109.897 144.242 108.517C145.059 106.366 143.41 104.071 141.11 104.071H129.27C126.969 104.071 125.32 106.366 126.137 108.517C126.662 109.897 126.949 111.394 126.949 112.958C126.949 114.523 126.662 116.02 126.137 117.4C125.32 119.55 126.969 121.846 129.27 121.846H141.11C143.41 121.846 145.059 119.55 144.242 117.4C143.717 116.02 143.43 114.523 143.43 112.958Z" fill="#FF7186"/>
<path d="M135.402 117.4C135.927 116.02 136.214 114.523 136.214 112.958C136.214 111.394 135.927 109.897 135.402 108.517C134.585 106.366 136.234 104.071 138.534 104.071H129.27C126.969 104.071 125.321 106.366 126.138 108.517C126.662 109.897 126.95 111.394 126.95 112.958C126.95 114.523 126.662 116.02 126.138 117.4C125.32 119.55 126.969 121.846 129.27 121.846H138.534C136.234 121.846 134.585 119.55 135.402 117.4Z" fill="#FF4155"/>
</svg>
